# xmcd
# 
# Track frame offsets:
#     150
#     7282
#     32300
#     59445
#     99945
#     117967
#     141912
#     161085
#     175872
# 
# Disc length: 2665
# 
# Revision: 7
# Processed by: cddbd v1.5.2PL0 Copyright (c) Steve Scherf et al.
# Submitted via: fre:ac v1.0.31
# 
DISCID=720a6709
DTITLE=Mike Bloomfield and Al Kooper - The Live Adventures of Mike Bloomfield and Al Kooper Disc 1
DYEAR=1969
DGENRE=Rock
TTITLE0=Openning Speach
TTITLE1=The 59th Street Bridge Song (Feelin' Groovy)
TTITLE2=I Wonder Who
TTITLE3=Her Holy Modal Highness
TTITLE4=The Weight
TTITLE5=Mary Ann
TTITLE6=Together 'Til the End of Time
TTITLE7=That's All Right
TTITLE8=Green Onions
EXTD=YEAR: 1968
EXTT0=
EXTT1=
EXTT2=
EXTT3=
EXTT4=
EXTT5=
EXTT6=
EXTT7=
EXTT8=
PLAYORDER=
